PathFileType	4	(X/Y/Z)	D:\Share\Shared_Data\Ergonomics\Sit To Stand Pertubation\S0\Free STS.trc
DataRate	CameraRate	NumFrames	NumMarkers	Units	OrigDataRate	OrigDataStartFrame	OrigNumFrames	
100	100	13	18	m	100	2283	231
Frame#	Time	R_Toe			R_ASIS			R_Pelvis			V_Sacral			L_Pelvis			L_ASIS			Clavical			R_Acromium			L_Acromium			Sternum			Torso			R_Thigh_Med			R_Thigh_Lat			R_Thigh			R_Shank_Med			R_Shank_Lat			R_Shank			R_Heel			
		X1	Y1	Z1	X2	Y2	Z2	X3	Y3	Z3	X4	Y4	Z4	X5	Y5	Z5	X6	Y6	Z6	X7	Y7	Z7	X8	Y8	Z8	X9	Y9	Z9	X10	Y10	Z10	X11	Y11	Z11	X12	Y12	Z12	X13	Y13	Z13	X14	Y14	Z14	X15	Y15	Z15	X16	Y16	Z16	X17	Y17	Z17	X18	Y18	Z18	

2283	9.25	0.37806107	0.048042919	0.14208023	0.13281265	0.7991405	0.15407065	0.022178278	0.85891736	0.20102696	-0.10111332	0.88885626	-0.028723087	0.038401043	0.83674414	-0.20853383	0.14643188	0.77939734	-0.15731186	0.40655093	1.0613574	-0.011295897	0.37240421	1.162465	0.12162664	0.36694608	1.1647362	-0.15513365	0.37802829	0.96949243	-0.030817945	0.38581989	1.0216092	-0.1290741	0.34269174	0.47928674	0.072865555	0.33266153	0.50062091	0.20675879	0.30505481	0.64943835	0.12495629	0.25679373	0.098401421	0.10320398	0.19854845	0.089115532	0.19228625	0.27183008	0.30584341	0.21526895	0.15501924	0.044827019	0.14679359
2284	9.26	0.37813834	0.047819954	0.14179663	0.13606357	0.80226489	0.1540937	0.025789062	0.86295642	0.20101393	-0.097369331	0.89353021	-0.028696611	0.041855877	0.84086597	-0.20854193	0.14950685	0.78281958	-0.15730945	0.40956058	1.0664495	-0.011446974	0.37519672	1.1674105	0.12148191	0.36965622	1.1696691	-0.15533162	0.38115662	0.97453033	-0.030947174	0.38893076	1.0266045	-0.12918712	0.34281927	0.47923224	0.071844513	0.33338815	0.50069995	0.20571309	0.30710153	0.64979022	0.12421481	0.25667819	0.098312386	0.10295589	0.1986024	0.089208115	0.19217979	0.27209677	0.30599716	0.21471924	0.15496732	0.044860249	0.1468345
2285	9.27	0.37824744	0.04756469	0.14150244	0.13928409	0.80544452	0.15413914	0.029376415	0.86701599	0.20102351	-0.093673691	0.89816949	-0.028639738	0.045222973	0.84497583	-0.20855791	0.15252296	0.78628595	-0.1573445	0.41246466	1.0716868	-0.011572326	0.37784891	1.1724921	0.12136376	0.37224014	1.1747216	-0.15552036	0.38419675	0.97970215	-0.031044853	0.39194742	1.0317262	-0.12928027	0.34289011	0.47917953	0.070793953	0.33408917	0.50078659	0.20463112	0.30913589	0.65012616	0.12344408	0.25656726	0.098220306	0.10270502	0.19867476	0.089305939	0.19207491	0.27236392	0.30615933	0.21415579	0.15492847	0.044906078	0.14688268
2286	9.28	0.37839325	0.047282654	0.14120833	0.14247679	0.80867035	0.15420425	0.032941399	0.87107996	0.20105634	-0.090027275	0.9027536	-0.028553757	0.048506958	0.84905719	-0.20857536	0.15548813	0.78978601	-0.15741096	0.41525989	1.077062	-0.011676206	0.38035974	1.1777002	0.12127181	0.37469275	1.1798895	-0.15569963	0.38716498	0.98500153	-0.031115768	0.39486163	1.0369705	-0.12936115	0.34292416	0.47912241	0.069732597	0.3347757	0.50087833	0.20353287	0.3111767	0.65043909	0.12264964	0.25647238	0.098126785	0.10245579	0.19876993	0.089408577	0.19197231	0.27264322	0.30632611	0.21358981	0.15490945	0.04496801	0.14693785
2287	9.29	0.37857642	0.046982491	0.14092465	0.1456445	0.81193286	0.15428394	0.036482967	0.87513293	0.20111359	-0.086432884	0.90726349	-0.028440212	0.0517117	0.85309772	-0.20858769	0.15840903	0.79331079	-0.15750037	0.41794315	1.0825688	-0.011763026	0.38272833	1.183025	0.12120494	0.37700687	1.1851702	-0.15586887	0.39007178	0.99042169	-0.031165297	0.39766718	1.0423354	-0.12943724	0.34294519	0.4790603	0.068676979	0.33545844	0.50097318	0.20243793	0.31323544	0.65072559	0.12183829	0.25640256	0.098033264	0.10221225	0.19888982	0.089515556	0.19187274	0.27294513	0.3064938	0.21303101	0.15491481	0.045047504	0.14699911
2288	9.3	0.37879068	0.046676365	0.14065961	0.14878755	0.81522198	0.15437225	0.039999149	0.87916022	0.2011971	-0.082894257	0.91168347	-0.028300205	0.054840755	0.85708862	-0.20859087	0.1612912	0.79685236	-0.15760408	0.42051123	1.0882	-0.011837051	0.3849538	1.1884565	0.1211615	0.37917526	1.1905615	-0.15602713	0.39291229	0.99595538	-0.031198519	0.40036005	1.0478185	-0.12951552	0.3429808	0.47899884	0.067640915	0.33614639	0.5010686	0.20136328	0.31531845	0.65098645	0.12101889	0.25636188	0.09794117	0.10197818	0.19903229	0.089625885	0.19177751	0.27327716	0.30665842	0.21248633	0.15494495	0.045143147	0.14706532
2289	9.31	0.37902274	0.046379208	0.14041888	0.15190314	0.81852649	0.15446361	0.043487778	0.88314856	0.20130861	-0.079414955	0.91600098	-0.028134153	0.057898117	0.8610235	-0.20858446	0.1641394	0.80040369	-0.15771397	0.42296161	1.0939478	-0.011901973	0.38703482	1.1939854	0.12113967	0.38119235	1.1960621	-0.15617307	0.39567822	1.0015947	-0.031219751	0.40293823	1.0534175	-0.1296019	0.34305814	0.47894675	0.066635735	0.3368454	0.50116092	0.20032176	0.31742673	0.65122455	0.12020296	0.25634802	0.097852226	0.10175723	0.1991904	0.089737595	0.19168849	0.27364111	0.3068158	0.21195998	0.15499521	0.045250607	0.14713576
2290	9.32	0.3792554	0.046105827	0.14020586	0.1549865	0.82183539	0.15455405	0.046946823	0.88708636	0.20144838	-0.075997444	0.92020691	-0.027942217	0.060888653	0.86489929	-0.20856973	0.16695891	0.80396075	-0.15782187	0.42529202	1.099804	-0.011960527	0.38897025	1.1996031	0.12113779	0.38305472	1.2016697	-0.15630556	0.39836957	1.0073317	-0.031232218	0.40540125	1.0591284	-0.1297009	0.34319861	0.47891183	0.065670532	0.33755734	0.50124478	0.19932097	0.3195542	0.65144293	0.11940455	0.25635284	0.097767914	0.10155258	0.19935364	0.089847717	0.19160785	0.27403143	0.30696155	0.211455	0.15505675	0.045363453	0.14721021
2291	9.33	0.37947244	0.045867119	0.14002174	0.15803267	0.82513806	0.15464172	0.050374744	0.89096405	0.20161484	-0.07264238	0.9242959	-0.027724798	0.06381797	0.86871704	-0.20854712	0.16975615	0.80752216	-0.15791882	0.42750003	1.1057601	-0.012014495	0.390759	1.2053029	0.12115466	0.38476108	1.2073821	-0.15642389	0.40098651	1.0131594	-0.031237829	0.40775034	1.0649471	-0.12981573	0.34341425	0.47889774	0.064752594	0.33828091	0.50131314	0.19836378	0.3216897	0.65164246	0.11863927	0.2563653	0.09768866	0.10136625	0.1995108	0.089952744	0.19153725	0.27443582	0.30709155	0.21097437	0.15511908	0.045474724	0.14728862
2292	9.34	0.37966269	0.04566769	0.1398656	0.16103799	0.82842584	0.15472607	0.05377058	0.89477307	0.2018054	-0.069348503	0.92826562	-0.027482895	0.066692474	0.87248169	-0.20851555	0.17253867	0.81109003	-0.15799542	0.4295834	1.1118088	-0.012065121	0.39240036	1.2110781	0.12118936	0.38631155	1.2131949	-0.15652786	0.40351822	1.0190706	-0.031237312	0.40998724	1.0708683	-0.12994803	0.34370496	0.47890189	0.063887806	0.33901239	0.50135886	0.19745062	0.32382248	0.65182111	0.11792294	0.2563754	0.097613693	0.10119855	0.19965324	0.090049339	0.19147719	0.27483908	0.30720303	0.21052104	0.1551734	0.045578739	0.14737039
2293	9.35	0.37982211	0.045505928	0.13973476	0.16400114	0.8316936	0.1548069	0.057133785	0.89850708	0.20201747	-0.06611261	0.93211676	-0.027218281	0.06951973	0.8762002	-0.20847464	0.17531427	0.8146676	-0.15804277	0.43154022	1.1179445	-0.01211351	0.39389355	1.2169241	0.12124109	0.38770724	1.2191029	-0.15661771	0.40594977	1.0250594	-0.031230625	0.41211255	1.076886	-0.13009807	0.34405566	0.47891483	0.06308057	0.33974628	0.50137616	0.19658263	0.32594754	0.6519754	0.1172704	0.25637738	0.097541649	0.10104823	0.19977664	0.090135162	0.19142694	0.275228	0.30729541	0.21009743	0.15521494	0.045672199	0.14745419
2294	9.36	0.37995212	0.045375904	0.13962534	0.16692433	0.83494049	0.15488428	0.060463676	0.90216248	0.20224902	-0.062929512	0.9358526	-0.026933701	0.072308792	0.87987811	-0.20842651	0.17808961	0.81825696	-0.15805437	0.43336932	1.1241624	-0.012160661	0.39523758	1.2228363	0.12130885	0.38894958	1.2250988	-0.15669441	0.40827231	1.031121	-0.031217285	0.41412445	1.082994	-0.13026491	0.34443668	0.4789209	0.062333385	0.34047574	0.50136316	0.19576312	0.32806573	0.6521015	0.11669447	0.25636996	0.097471054	0.10091336	0.19988089	0.090209412	0.19138484	0.27559473	0.30737079	0.20970482	0.15524309	0.045753887	0.14753812
2295	9.37	0.38005777	0.045269939	0.13953343	0.16981526	0.83816895	0.1549592	0.063758911	0.90573907	0.20249802	-0.059792492	0.93947876	-0.026632908	0.075070091	0.88351947	-0.20837585	0.1808694	0.82185742	-0.15802708	0.43507007	1.1304589	-0.01220748	0.39643088	1.2288116	0.12139135	0.39004047	1.2311753	-0.15675996	0.41048349	1.0372509	-0.031196568	0.41601947	1.089186	-0.13044707	0.34481006	0.47890213	0.061646381	0.34119293	0.50132208	0.1949967	0.33018076	0.6521972	0.11620523	0.25635519	0.097400856	0.10079233	0.19996848	0.090272667	0.19134914	0.2759371	0.30743234	0.20934261	0.15526003	0.045824028	0.14762065
